<svg width="20" height="22" viewBox="0 0 20 22" fill="none" xmlns="http://www.w3.org/2000/svg">
<rect x="7" y="11.5636" width="6" height="9" fill="#E4ECFD"/>
<path d="M1 8.05268C1 7.74409 1.14247 7.45279 1.38606 7.26333L9.38606 1.04111C9.74717 0.760244 10.2528 0.760244 10.6139 1.04111L18.6139 7.26333C18.8575 7.45279 19 7.74409 19 8.05268V18.5636C19 19.094 18.7893 19.6027 18.4142 19.9778C18.0391 20.3529 17.5304 20.5636 17 20.5636H3C2.46957 20.5636 1.96086 20.3529 1.58579 19.9778C1.21071 19.6027 1 19.094 1 18.5636V8.05268Z" stroke="white" stroke-width="1.5" stroke-linecap="round" stroke-linejoin="round"/>
<path d="M6.72729 19.8363V11.1091H13.2727V15.4727M13.2727 17.6545V18.7454" stroke="white" stroke-width="1.5" stroke-linecap="round" stroke-linejoin="round"/>
</svg>
