<svg width="22" height="22" viewBox="0 0 22 22" fill="none" xmlns="http://www.w3.org/2000/svg">
<path d="M15.6914 18.0174C15.0547 17.3808 15.0547 16.3487 15.6914 15.712C16.328 15.0754 17.3601 15.0754 17.9967 15.712L19.8266 17.5419C20.4632 18.1786 20.4632 19.2107 19.8266 19.8473C19.19 20.4839 18.1579 20.4839 17.5213 19.8473L15.6914 18.0174Z" fill="#226CF5" fill-opacity="0.6"/>
<path d="M15.6914 15.712V15.712C15.0547 16.3487 15.0547 17.3808 15.6914 18.0174L17.5213 19.8473C18.1579 20.4839 19.19 20.4839 19.8266 19.8473V19.8473C20.4632 19.2107 20.4632 18.1786 19.8266 17.5419L17.9967 15.712C17.3601 15.0754 16.328 15.0754 15.6914 15.712V15.712ZM15.6914 15.712L14.502 14.5227" stroke="#3B3B3B" stroke-linecap="round"/>
<path d="M9.02146 1C9.32738 1.0405 9.62711 1.10058 9.91936 1.17893C10.1831 1.24965 10.4408 1.33526 10.6915 1.4348M13.0833 3.01048C13.2689 3.19632 13.4443 3.39246 13.6083 3.59795C13.7915 3.82729 13.9606 4.06829 14.1145 4.31966C14.3035 4.62842 14.4695 4.95282 14.61 5.29047C14.9574 6.12551 15.1493 7.04157 15.1493 8.00243C15.1493 11.9037 11.9867 15.0663 8.08539 15.0663C4.1841 15.0663 1.02148 11.9037 1.02148 8.00243C1.02148 4.73547 3.23927 1.9865 6.25142 1.17893" stroke="#3B3B3B" stroke-width="1.5" stroke-linecap="round"/>
<path d="M15.6914 15.712V15.712C15.0547 16.3487 15.0547 17.3808 15.6914 18.0174L17.5213 19.8473C18.1579 20.4839 19.19 20.4839 19.8266 19.8473V19.8473C20.4632 19.2107 20.4632 18.1786 19.8266 17.5419L17.9967 15.712C17.3601 15.0754 16.328 15.0754 15.6914 15.712V15.712ZM15.6914 15.712L14.502 14.5227" stroke="#3B3B3B" stroke-width="1.5" stroke-linecap="round"/>
</svg>
