<svg width="22" height="20" viewBox="0 0 22 20" fill="none" xmlns="http://www.w3.org/2000/svg">
<path d="M21 1H3C1.89543 1 1 1.89543 1 3V17C1 18.1046 1.89543 19 3 19H17H21V1Z" fill="white"/>
<path d="M21 1H19.4983H18.5531M17 19H3C1.89543 19 1 18.1046 1 17V3C1 1.89543 1.89543 1 3 1H15.4686" stroke="#3B3B3B" stroke-width="1.5" stroke-linecap="round"/>
<path d="M21 8.5V8C21 6.89543 20.1046 6 19 6H1V17C1 18.1046 1.89543 19 3 19H19C20.1046 19 21 18.1046 21 17V16.5" stroke="#3B3B3B" stroke-width="1.5" stroke-linecap="round"/>
<path opacity="0.6" d="M15 12.5C15 11.1193 16.1193 10 17.5 10H21V15H17.5C16.1193 15 15 13.8807 15 12.5Z" fill="#226CF5"/>
</svg>
