<svg width="20" height="17" viewBox="0 0 20 17" fill="none" xmlns="http://www.w3.org/2000/svg">
<path d="M3.99999 4.79998C3.99999 4.64085 4.06321 4.48823 4.17573 4.37571C4.28825 4.26319 4.44086 4.19998 4.59999 4.19998H13C13.1591 4.19998 13.3117 4.26319 13.4243 4.37571C13.5368 4.48823 13.6 4.64085 13.6 4.79998C13.6 4.95911 13.5368 5.11172 13.4243 5.22424C13.3117 5.33676 13.1591 5.39998 13 5.39998H4.59999C4.44086 5.39998 4.28825 5.33676 4.17573 5.22424C4.06321 5.11172 3.99999 4.95911 3.99999 4.79998ZM10.6 7.79998C10.4409 7.79998 10.2883 7.86319 10.1757 7.97571C10.0632 8.08823 9.99999 8.24085 9.99999 8.39998C9.99999 8.55911 10.0632 8.71172 10.1757 8.82424C10.2883 8.93676 10.4409 8.99998 10.6 8.99998H13C13.1591 8.99998 13.3117 8.93676 13.4243 8.82424C13.5368 8.71172 13.6 8.55911 13.6 8.39998C13.6 8.24085 13.5368 8.08823 13.4243 7.97571C13.3117 7.86319 13.1591 7.79998 13 7.79998H10.6ZM9.99999 12C9.99999 11.8408 10.0632 11.6882 10.1757 11.5757C10.2883 11.4632 10.4409 11.4 10.6 11.4H13C13.1591 11.4 13.3117 11.4632 13.4243 11.5757C13.5368 11.6882 13.6 11.8408 13.6 12C13.6 12.1591 13.5368 12.3117 13.4243 12.4242C13.3117 12.5368 13.1591 12.6 13 12.6H10.6C10.4409 12.6 10.2883 12.5368 10.1757 12.4242C10.0632 12.3117 9.99999 12.1591 9.99999 12ZM4.59999 7.79998C4.44086 7.79998 4.28825 7.86319 4.17573 7.97571C4.06321 8.08823 3.99999 8.24085 3.99999 8.39998V12C3.99999 12.1591 4.06321 12.3117 4.17573 12.4242C4.28825 12.5368 4.44086 12.6 4.59999 12.6H8.19999C8.35912 12.6 8.51174 12.5368 8.62426 12.4242C8.73678 12.3117 8.79999 12.1591 8.79999 12V8.39998C8.79999 8.24085 8.73678 8.08823 8.62426 7.97571C8.51174 7.86319 8.35912 7.79998 8.19999 7.79998H4.59999ZM5.19999 11.4V8.99998H7.59999V11.4H5.19999ZM0.399994 2.99998C0.399994 2.36346 0.65285 1.75301 1.10294 1.30292C1.55302 0.852832 2.16347 0.599976 2.79999 0.599976H14.8C15.4365 0.599976 16.047 0.852832 16.4971 1.30292C16.9471 1.75301 17.2 2.36346 17.2 2.99998V4.19998C17.8365 4.19998 18.447 4.45283 18.8971 4.90292C19.3471 5.35301 19.6 5.96346 19.6 6.59998V13.2C19.6 13.9956 19.2839 14.7587 18.7213 15.3213C18.1587 15.8839 17.3956 16.2 16.6 16.2H3.39999C2.60434 16.2 1.84128 15.8839 1.27867 15.3213C0.716064 14.7587 0.399994 13.9956 0.399994 13.2V2.99998ZM16 2.99998C16 2.68172 15.8736 2.37649 15.6485 2.15145C15.4235 1.9264 15.1183 1.79998 14.8 1.79998H2.79999C2.48173 1.79998 2.17651 1.9264 1.95147 2.15145C1.72642 2.37649 1.59999 2.68172 1.59999 2.99998V13.2C1.59999 13.6774 1.78964 14.1352 2.1272 14.4728C2.46477 14.8103 2.9226 15 3.39999 15H16.6C17.0774 15 17.5352 14.8103 17.8728 14.4728C18.2104 14.1352 18.4 13.6774 18.4 13.2V6.59998C18.4 6.28172 18.2736 5.97649 18.0485 5.75145C17.8235 5.5264 17.5183 5.39998 17.2 5.39998V13.2C17.2 13.3591 17.1368 13.5117 17.0243 13.6242C16.9117 13.7368 16.7591 13.8 16.6 13.8C16.4409 13.8 16.2883 13.7368 16.1757 13.6242C16.0632 13.5117 16 13.3591 16 13.2V2.99998Z" fill="#226CF5"/>
</svg>
